<?xml version="1.0" standalone="no"?>
<!DOCTYPE svg PUBLIC "-//W3C//DTD SVG 20010904//EN"
 "http://www.w3.org/TR/2001/REC-SVG-20010904/DTD/svg10.dtd">
<svg version="1.0" xmlns="http://www.w3.org/2000/svg"
 width="1080.000000pt" height="1080.000000pt" viewBox="0 0 1080.000000 1080.000000"
 preserveAspectRatio="xMidYMid meet">

<g transform="translate(0.000000,1080.000000) scale(0.100000,-0.100000)"
fill="#000000" stroke="none">
<path d="M5240 10253 c-575 -26 -1105 -136 -1599 -333 -316 -125 -665 -309
-935 -492 -1115 -754 -1874 -1949 -2076 -3269 -44 -282 -53 -414 -53 -739 -1
-457 36 -766 139 -1185 42 -170 121 -422 134 -430 6 -4 106 69 223 161 192
152 308 243 513 404 39 30 142 111 230 180 149 118 388 306 654 514 63 49 158
124 210 166 154 123 220 172 229 168 5 -2 42 -46 83 -98 41 -52 180 -230 309
-395 260 -332 569 -727 665 -850 34 -44 124 -159 199 -255 76 -96 204 -260
286 -365 81 -104 206 -264 277 -355 l129 -165 84 -6 c46 -4 279 -10 518 -14
l434 -7 -19 25 c-18 25 -314 390 -645 797 -182 224 -705 870 -918 1135 -80 99
-215 266 -301 371 -398 490 -520 644 -520 652 0 11 -33 -16 1566 1279 182 147
457 370 612 495 154 126 283 232 286 237 9 14 -119 20 -600 27 l-450 6 -235
-188 c-129 -103 -380 -305 -559 -449 -179 -144 -509 -409 -735 -590 -464 -372
-1117 -897 -1430 -1148 -599 -483 -793 -637 -802 -637 -18 0 -38 290 -37 535
4 1122 429 2168 1211 2975 621 642 1378 1056 2257 1235 442 90 989 104 1446
39 745 -108 1455 -410 2042 -870 l107 -84 387 2 387 3 -91 91 c-697 699 -1581
1168 -2542 1348 -339 64 -743 94 -1070 79z"/>
<path d="M6377 7903 c-4 -21 -7 -173 -7 -337 0 -165 -4 -486 -10 -715 -5 -229
-14 -681 -20 -1006 -5 -324 -15 -837 -20 -1140 -14 -729 -29 -1759 -27 -1762
1 -1 165 -5 364 -9 l362 -7 5 24 c3 13 8 222 11 464 5 425 34 2087 55 3240 6
308 10 584 10 613 l0 52 738 -1 c405 -1 897 -4 1092 -8 l355 -6 42 -85 c127
-257 267 -690 322 -995 46 -256 60 -381 71 -625 47 -1126 -327 -2189 -1067
-3030 -676 -768 -1604 -1275 -2598 -1420 -222 -32 -391 -43 -645 -43 -251 0
-397 10 -625 43 -1198 170 -2288 867 -2972 1900 -38 58 -89 138 -112 178 -24
39 -46 72 -50 72 -11 0 -381 -375 -381 -386 0 -24 201 -322 309 -459 416 -525
868 -918 1426 -1241 489 -282 1009 -469 1575 -568 331 -57 384 -61 840 -61
447 1 472 2 795 56 838 138 1629 500 2288 1047 134 111 175 149 347 321 372
373 649 755 884 1221 72 143 206 439 206 456 0 4 15 47 34 98 109 292 198 671
253 1076 26 195 26 911 0 1110 -81 618 -224 1096 -481 1610 -51 102 -113 219
-137 260 l-45 75 -309 6 c-171 4 -886 10 -1591 14 l-1281 7 -6 -39z"/>
</g>
</svg>
