<svg version="1.1" id="Layer_1" xmlns="http://www.w3.org/2000/svg" xmlns:xlink="http://www.w3.org/1999/xlink" x="0px" y="0px"
	 width="100%" viewBox="0 0 1080 1080" enable-background="new 0 0 1080 1080" xml:space="preserve">
<path fill="#1B1B1B" opacity="1.000000" stroke="none" 
	d="
M1081.000000,413.000000 
	C1081.000000,635.974304 1081.000000,858.448547 1081.000000,1080.961426 
	C721.067383,1080.961426 361.134705,1080.961426 1.101034,1080.961426 
	C1.101034,721.109009 1.101034,361.217987 1.101034,1.163476 
	C360.999939,1.163476 720.999939,1.163476 1081.000000,1.163476 
	C1081.000000,138.198730 1081.000000,275.349365 1081.000000,413.000000 
M523.679688,55.430355 
	C506.673340,57.086285 489.637360,58.486633 472.666931,60.452705 
	C439.906067,64.248146 408.219391,72.779854 377.312927,83.963867 
	C330.643677,100.851906 287.515228,124.430099 248.152100,154.744659 
	C205.182800,187.836441 168.591980,226.852295 138.591339,272.107086 
	C118.005325,303.160278 101.189285,336.101074 88.249489,370.966217 
	C69.998207,420.142639 59.897663,471.011658 58.539124,523.494812 
	C57.741623,554.304016 58.745979,585.066040 64.431732,615.451233 
	C67.769592,633.289001 71.501320,651.073059 75.761452,668.710876 
	C78.364059,679.486145 82.305283,689.938049 85.830383,701.122437 
	C154.787201,646.945190 223.023529,593.333984 292.031830,539.116272 
	C293.128357,540.636108 293.962738,541.877930 294.881531,543.053833 
	C320.417908,575.735779 345.964172,608.410034 371.506073,641.087708 
	C409.615173,689.843689 447.710297,738.610474 485.900757,787.302551 
	C486.827667,788.484436 488.790619,789.455078 490.296265,789.492920 
	C521.602722,790.279724 552.912781,790.921753 584.222656,791.569031 
	C585.626343,791.598145 587.034668,791.407776 588.997253,791.284729 
	C586.955688,788.712646 585.339844,786.641663 583.687439,784.600220 
	C548.715393,741.394104 513.739624,698.191040 478.763672,654.988098 
	C455.614105,626.393250 432.450470,597.809814 409.316772,569.202148 
	C389.925842,545.222961 370.620911,521.173828 351.125366,497.280182 
	C348.934448,494.594971 348.696167,493.322021 351.573547,491.001831 
	C384.358124,464.565643 417.018494,437.975494 449.736908,411.457153 
	C492.879761,376.489746 536.046631,341.551971 579.197998,306.595062 
	C584.976624,301.913818 590.725159,297.195343 596.487610,292.494080 
	C594.075317,291.473541 592.108215,291.501587 590.142151,291.469391 
	C558.666199,290.954010 527.191040,290.353882 495.713043,290.040466 
	C492.868835,290.012146 489.469543,291.136292 487.238220,292.885986 
	C471.070221,305.563995 455.146667,318.553436 439.126251,331.420013 
	C401.147430,361.922241 363.153473,392.405609 325.173828,422.906799 
	C293.376831,448.442657 261.583221,473.982788 229.803329,499.539978 
	C198.142242,525.001587 166.509308,550.498230 134.842010,575.952148 
	C128.206696,581.285645 121.475380,586.499695 114.095200,592.314880 
	C113.184280,583.382690 112.102203,575.553162 111.633804,567.687073 
	C109.820885,537.241333 111.071083,506.936859 115.398033,476.703094 
	C118.608620,454.269653 123.529434,432.271088 130.203064,410.664581 
	C139.336411,381.094482 151.690704,352.888519 167.045517,326.009033 
	C196.016129,275.294220 233.677002,232.119171 280.005463,196.596512 
	C324.570251,162.426147 373.914764,137.771759 428.180573,123.036148 
	C456.903870,115.236473 486.097900,110.430832 515.785095,108.599564 
	C554.988892,106.181252 593.738220,109.261414 632.208191,117.359344 
	C666.535156,124.585190 699.414490,135.785553 730.893188,151.109634 
	C761.111511,165.820129 789.255798,183.831131 815.253052,205.181610 
	C816.867371,206.507324 819.319580,207.468323 821.389771,207.482895 
	C844.221497,207.643616 867.054749,207.588745 889.887634,207.566238 
	C891.064026,207.565079 892.240112,207.328278 893.973328,207.141006 
	C893.045349,206.079773 892.634888,205.573364 892.186707,205.102966 
	C856.351562,167.489212 815.526917,136.398148 769.702698,111.956978 
	C728.323853,89.886833 684.675720,73.939377 638.600220,64.990616 
	C623.148987,61.989685 607.596619,58.851818 591.947998,57.682293 
	C569.581909,56.010723 547.084961,56.091320 523.679688,55.430355 
M421.448212,1007.669800 
	C422.212952,1007.967896 422.955475,1008.356201 423.745697,1008.550842 
	C451.848480,1015.474365 480.311951,1020.389771 509.206055,1022.002930 
	C539.126587,1023.673401 569.005066,1023.390137 598.896240,1019.779419 
	C632.185425,1015.758240 664.689758,1008.636047 696.396301,997.990234 
	C742.812134,982.405701 785.912964,960.194092 825.579163,931.452576 
	C861.681702,905.293335 893.578552,874.712280 921.355957,839.821228 
	C956.022949,796.276062 982.317810,748.110107 1000.382690,695.534790 
	C1013.432678,657.554871 1021.887878,618.480347 1024.545776,578.360107 
	C1027.003174,541.268066 1026.722290,504.174744 1020.984253,467.320160 
	C1016.893311,441.044312 1010.853271,415.233734 1002.666138,389.889832 
	C991.628357,355.721680 976.653198,323.398010 958.657959,292.394073 
	C956.949036,289.449768 954.981384,288.395752 951.576904,288.391785 
	C917.753052,288.352417 883.928711,288.218353 850.105774,287.952484 
	C793.784546,287.509827 737.464355,286.925842 681.143311,286.458282 
	C667.033875,286.341156 652.922607,286.440796 638.625305,286.440796 
	C635.727783,453.323700 632.839783,619.657959 629.937988,786.790344 
	C654.384277,786.790344 678.470520,786.790344 703.060547,786.790344 
	C705.592896,640.900024 708.131653,494.640228 710.663025,348.806793 
	C744.194885,348.806793 777.006653,348.749542 809.818115,348.821686 
	C848.313782,348.906281 886.809021,349.128052 925.304688,349.202850 
	C928.252441,349.208588 930.061340,349.810059 931.463806,352.802795 
	C943.877563,379.292938 953.744080,406.628357 960.876282,435.044495 
	C968.463989,465.275452 972.483643,495.937073 973.344604,526.993347 
	C974.300354,561.472778 971.423218,595.697449 964.151550,629.466797 
	C957.011230,662.625854 946.203186,694.545654 931.455017,725.123535 
	C901.550598,787.125671 859.381042,839.176331 804.800415,881.103760 
	C743.731750,928.015320 675.095215,956.621765 598.623047,966.636780 
	C566.761353,970.809448 534.872925,971.828186 503.016510,968.519592 
	C482.807434,966.420654 462.738007,962.562317 442.771057,958.650208 
	C417.166595,953.633545 392.683411,944.814392 368.847900,934.320129 
	C337.509399,920.522400 308.194458,903.223450 280.975708,882.408264 
	C248.487442,857.563232 219.745193,828.978943 195.698807,795.872559 
	C185.247971,781.484131 175.711548,766.431580 165.991821,752.024536 
	C153.836700,764.219543 141.202713,776.895020 128.302414,789.837646 
	C128.525772,790.263184 128.989471,791.307190 129.589310,792.266052 
	C154.128983,831.495544 183.279465,866.848022 217.634949,897.937500 
	C247.475342,924.941162 280.072540,947.919922 315.613129,966.758728 
	C349.021179,984.467346 383.926605,998.322571 421.448212,1007.669800 
z"/>
<path fill="#FCFCFC" opacity="1.000000" stroke="none" 
	d="
M524.161743,55.427002 
	C547.084961,56.091320 569.581909,56.010723 591.947998,57.682293 
	C607.596619,58.851818 623.148987,61.989685 638.600220,64.990616 
	C684.675720,73.939377 728.323853,89.886833 769.702698,111.956978 
	C815.526917,136.398148 856.351562,167.489212 892.186707,205.102966 
	C892.634888,205.573364 893.045349,206.079773 893.973328,207.141006 
	C892.240112,207.328278 891.064026,207.565079 889.887634,207.566238 
	C867.054749,207.588745 844.221497,207.643616 821.389771,207.482895 
	C819.319580,207.468323 816.867371,206.507324 815.253052,205.181610 
	C789.255798,183.831131 761.111511,165.820129 730.893188,151.109634 
	C699.414490,135.785553 666.535156,124.585190 632.208191,117.359344 
	C593.738220,109.261414 554.988892,106.181252 515.785095,108.599564 
	C486.097900,110.430832 456.903870,115.236473 428.180573,123.036148 
	C373.914764,137.771759 324.570251,162.426147 280.005463,196.596512 
	C233.677002,232.119171 196.016129,275.294220 167.045517,326.009033 
	C151.690704,352.888519 139.336411,381.094482 130.203064,410.664581 
	C123.529434,432.271088 118.608620,454.269653 115.398033,476.703094 
	C111.071083,506.936859 109.820885,537.241333 111.633804,567.687073 
	C112.102203,575.553162 113.184280,583.382690 114.095200,592.314880 
	C121.475380,586.499695 128.206696,581.285645 134.842010,575.952148 
	C166.509308,550.498230 198.142242,525.001587 229.803329,499.539978 
	C261.583221,473.982788 293.376831,448.442657 325.173828,422.906799 
	C363.153473,392.405609 401.147430,361.922241 439.126251,331.420013 
	C455.146667,318.553436 471.070221,305.563995 487.238220,292.885986 
	C489.469543,291.136292 492.868835,290.012146 495.713043,290.040466 
	C527.191040,290.353882 558.666199,290.954010 590.142151,291.469391 
	C592.108215,291.501587 594.075317,291.473541 596.487610,292.494080 
	C590.725159,297.195343 584.976624,301.913818 579.197998,306.595062 
	C536.046631,341.551971 492.879761,376.489746 449.736908,411.457153 
	C417.018494,437.975494 384.358124,464.565643 351.573547,491.001831 
	C348.696167,493.322021 348.934448,494.594971 351.125366,497.280182 
	C370.620911,521.173828 389.925842,545.222961 409.316772,569.202148 
	C432.450470,597.809814 455.614105,626.393250 478.763672,654.988098 
	C513.739624,698.191040 548.715393,741.394104 583.687439,784.600220 
	C585.339844,786.641663 586.955688,788.712646 588.997253,791.284729 
	C587.034668,791.407776 585.626343,791.598145 584.222656,791.569031 
	C552.912781,790.921753 521.602722,790.279724 490.296265,789.492920 
	C488.790619,789.455078 486.827667,788.484436 485.900757,787.302551 
	C447.710297,738.610474 409.615173,689.843689 371.506073,641.087708 
	C345.964172,608.410034 320.417908,575.735779 294.881531,543.053833 
	C293.962738,541.877930 293.128357,540.636108 292.031830,539.116272 
	C223.023529,593.333984 154.787201,646.945190 85.830383,701.122437 
	C82.305283,689.938049 78.364059,679.486145 75.761452,668.710876 
	C71.501320,651.073059 67.769592,633.289001 64.431732,615.451233 
	C58.745979,585.066040 57.741623,554.304016 58.539124,523.494812 
	C59.897663,471.011658 69.998207,420.142639 88.249489,370.966217 
	C101.189285,336.101074 118.005325,303.160278 138.591339,272.107086 
	C168.591980,226.852295 205.182800,187.836441 248.152100,154.744659 
	C287.515228,124.430099 330.643677,100.851906 377.312927,83.963867 
	C408.219391,72.779854 439.906067,64.248146 472.666931,60.452705 
	C489.637360,58.486633 506.673340,57.086285 524.161743,55.427002 
z"/>
<path fill="#FDFDFD" opacity="1.000000" stroke="none" 
	d="
M421.035187,1007.621094 
	C383.926605,998.322571 349.021179,984.467346 315.613129,966.758728 
	C280.072540,947.919922 247.475342,924.941162 217.634949,897.937500 
	C183.279465,866.848022 154.128983,831.495544 129.589310,792.266052 
	C128.989471,791.307190 128.525772,790.263184 128.302414,789.837646 
	C141.202713,776.895020 153.836700,764.219543 165.991821,752.024536 
	C175.711548,766.431580 185.247971,781.484131 195.698807,795.872559 
	C219.745193,828.978943 248.487442,857.563232 280.975708,882.408264 
	C308.194458,903.223450 337.509399,920.522400 368.847900,934.320129 
	C392.683411,944.814392 417.166595,953.633545 442.771057,958.650208 
	C462.738007,962.562317 482.807434,966.420654 503.016510,968.519592 
	C534.872925,971.828186 566.761353,970.809448 598.623047,966.636780 
	C675.095215,956.621765 743.731750,928.015320 804.800415,881.103760 
	C859.381042,839.176331 901.550598,787.125671 931.455017,725.123535 
	C946.203186,694.545654 957.011230,662.625854 964.151550,629.466797 
	C971.423218,595.697449 974.300354,561.472778 973.344604,526.993347 
	C972.483643,495.937073 968.463989,465.275452 960.876282,435.044495 
	C953.744080,406.628357 943.877563,379.292938 931.463806,352.802795 
	C930.061340,349.810059 928.252441,349.208588 925.304688,349.202850 
	C886.809021,349.128052 848.313782,348.906281 809.818115,348.821686 
	C777.006653,348.749542 744.194885,348.806793 710.663025,348.806793 
	C708.131653,494.640228 705.592896,640.900024 703.060547,786.790344 
	C678.470520,786.790344 654.384277,786.790344 629.937988,786.790344 
	C632.839783,619.657959 635.727783,453.323700 638.625305,286.440796 
	C652.922607,286.440796 667.033875,286.341156 681.143311,286.458282 
	C737.464355,286.925842 793.784546,287.509827 850.105774,287.952484 
	C883.928711,288.218353 917.753052,288.352417 951.576904,288.391785 
	C954.981384,288.395752 956.949036,289.449768 958.657959,292.394073 
	C976.653198,323.398010 991.628357,355.721680 1002.666138,389.889832 
	C1010.853271,415.233734 1016.893311,441.044312 1020.984253,467.320160 
	C1026.722290,504.174744 1027.003174,541.268066 1024.545776,578.360107 
	C1021.887878,618.480347 1013.432678,657.554871 1000.382690,695.534790 
	C982.317810,748.110107 956.022949,796.276062 921.355957,839.821228 
	C893.578552,874.712280 861.681702,905.293335 825.579163,931.452576 
	C785.912964,960.194092 742.812134,982.405701 696.396301,997.990234 
	C664.689758,1008.636047 632.185425,1015.758240 598.896240,1019.779419 
	C569.005066,1023.390137 539.126587,1023.673401 509.206055,1022.002930 
	C480.311951,1020.389771 451.848480,1015.474365 423.745697,1008.550842 
	C422.955475,1008.356201 422.212952,1007.967896 421.035187,1007.621094 
z"/>
</svg>